<?xml version="1.0" encoding="UTF-8"?>
<svg xmlns="http://www.w3.org/2000/svg" width="178" height="20" viewBox="0 0 178 20" fill="none">
  <path d="M7.57067 19.192C5.33068 19.192 3.58668 18.552 2.33867 17.272C1.09067 15.992 0.466675 14.152 0.466675 11.752V2.2H2.86668V11.656C2.86668 15.256 4.44267 17.056 7.59468 17.056C9.13067 17.056 10.3067 16.616 11.1227 15.736C11.9387 14.84 12.3467 13.48 12.3467 11.656V2.2H14.6747V11.752C14.6747 14.168 14.0507 16.016 12.8027 17.296C11.5547 18.56 9.81068 19.192 7.57067 19.192Z" fill="white"></path>
  <path d="M33.2511 6.16C34.8671 6.16 36.1471 6.632 37.0911 7.576C38.0511 8.504 38.5311 9.872 38.5311 11.68V19H36.2271V11.944C36.2271 10.712 35.9311 9.784 35.3391 9.16C34.7471 8.536 33.8991 8.224 32.7951 8.224C31.5471 8.224 30.5631 8.592 29.8431 9.328C29.1231 10.048 28.7631 11.088 28.7631 12.448V19H26.4591V6.28H28.6671V8.2C29.1311 7.544 29.7551 7.04 30.5391 6.688C31.3391 6.336 32.2431 6.16 33.2511 6.16Z" fill="white"></path>
  <path d="M49.995 6.28H52.299V19H49.995V6.28ZM51.147 3.832C50.699 3.832 50.323 3.688 50.019 3.4C49.731 3.112 49.587 2.76 49.587 2.344C49.587 1.928 49.731 1.576 50.019 1.288C50.323 0.984001 50.699 0.832001 51.147 0.832001C51.595 0.832001 51.963 0.976001 52.251 1.264C52.555 1.536 52.707 1.88 52.707 2.296C52.707 2.728 52.555 3.096 52.251 3.4C51.963 3.688 51.595 3.832 51.147 3.832Z" fill="white"></path>
  <path d="M69.3461 19.144C68.0821 19.144 66.9461 18.864 65.9381 18.304C64.9301 17.744 64.1381 16.976 63.5621 16C63.0021 15.008 62.7221 13.888 62.7221 12.64C62.7221 11.392 63.0021 10.28 63.5621 9.304C64.1381 8.312 64.9301 7.544 65.9381 7C66.9461 6.44 68.0821 6.16 69.3461 6.16C70.6101 6.16 71.7381 6.44 72.7301 7C73.7381 7.544 74.5221 8.312 75.0821 9.304C75.6581 10.28 75.9461 11.392 75.9461 12.64C75.9461 13.888 75.6581 15.008 75.0821 16C74.5221 16.976 73.7381 17.744 72.7301 18.304C71.7381 18.864 70.6101 19.144 69.3461 19.144ZM69.3461 17.128C70.1621 17.128 70.8901 16.944 71.5301 16.576C72.1861 16.192 72.6981 15.664 73.0661 14.992C73.4341 14.304 73.6181 13.52 73.6181 12.64C73.6181 11.76 73.4341 10.984 73.0661 10.312C72.6981 9.624 72.1861 9.096 71.5301 8.728C70.8901 8.36 70.1621 8.176 69.3461 8.176C68.5301 8.176 67.7941 8.36 67.1381 8.728C66.4981 9.096 65.9861 9.624 65.6021 10.312C65.2341 10.984 65.0501 11.76 65.0501 12.64C65.0501 13.52 65.2341 14.304 65.6021 14.992C65.9861 15.664 66.4981 16.192 67.1381 16.576C67.7941 16.944 68.5301 17.128 69.3461 17.128Z" fill="white"></path>
  <path d="M93.1245 6.16C94.7405 6.16 96.0205 6.632 96.9645 7.576C97.9245 8.504 98.4045 9.872 98.4045 11.68V19H96.1005V11.944C96.1005 10.712 95.8045 9.784 95.2125 9.16C94.6205 8.536 93.7725 8.224 92.6685 8.224C91.4205 8.224 90.4365 8.592 89.7165 9.328C88.9965 10.048 88.6365 11.088 88.6365 12.448V19H86.3325V6.28H88.5405V8.2C89.0045 7.544 89.6285 7.04 90.4125 6.688C91.2125 6.336 92.1165 6.16 93.1245 6.16Z" fill="white"></path>
  <path d="M124.652 2.2V19H122.252V11.512H112.604V19H110.204V2.2H112.604V9.424H122.252V2.2H124.652Z" fill="#1A81FD"></path>
  <path d="M143.841 19.192C141.601 19.192 139.857 18.552 138.609 17.272C137.361 15.992 136.737 14.152 136.737 11.752V2.2H139.137V11.656C139.137 15.256 140.713 17.056 143.865 17.056C145.401 17.056 146.577 16.616 147.393 15.736C148.209 14.84 148.617 13.48 148.617 11.656V2.2H150.945V11.752C150.945 14.168 150.321 16.016 149.073 17.296C147.825 18.56 146.081 19.192 143.841 19.192Z" fill="#1A81FD"></path>
  <path d="M174.369 10.288C175.345 10.56 176.113 11.056 176.673 11.776C177.233 12.48 177.513 13.376 177.513 14.464C177.513 15.92 176.961 17.04 175.857 17.824C174.769 18.608 173.177 19 171.081 19H163.065V2.2H170.601C172.521 2.2 174.001 2.584 175.041 3.352C176.097 4.12 176.625 5.184 176.625 6.544C176.625 7.424 176.417 8.184 176.001 8.824C175.601 9.464 175.057 9.952 174.369 10.288ZM165.465 4.144V9.52H170.385C171.617 9.52 172.561 9.296 173.217 8.848C173.889 8.384 174.225 7.712 174.225 6.832C174.225 5.952 173.889 5.288 173.217 4.84C172.561 4.376 171.617 4.144 170.385 4.144H165.465ZM170.985 17.056C172.345 17.056 173.369 16.832 174.057 16.384C174.745 15.936 175.089 15.232 175.089 14.272C175.089 12.4 173.721 11.464 170.985 11.464H165.465V17.056H170.985Z" fill="#1A81FD"></path>
</svg>
